<svg xmlns="http://www.w3.org/2000/svg" width="66" height="66" viewBox="0 0 66 66">
    <defs>
        <style>
            .cls-1{fill:#666}
        </style>
    </defs>
    <g id="그룹_2872" transform="translate(-285.865 -7433.241)">
        <g id="그룹_2871">
            <path id="패스_673" d="M313.865 7440.241a1 1 0 0 0-1-1h-9a1 1 0 0 0 0 2h9a1 1 0 0 0 1-1z" class="cls-1"/>
            <path id="패스_674" d="M348.865 7446.241h-22a3 3 0 0 0-3 3v47a3 3 0 0 0 3 3h22a3 3 0 0 0 3-3v-47a3 3 0 0 0-3-3zm1 50a1 1 0 0 1-1 1h-22a1 1 0 0 1-1-1v-47a1 1 0 0 1 1-1h22a1 1 0 0 1 1 1z" class="cls-1"/>
            <path id="패스_675" d="M339.865 7452.241h-4a1 1 0 0 0 0 2h4a1 1 0 0 0 0-2z" class="cls-1"/>
            <rect id="사각형_90" width="4" height="4" class="cls-1" rx="2" transform="translate(305.865 7483.241)"/>
            <path id="패스_676" d="M316.69 7492.891h-25.562a3.279 3.279 0 0 1-3.263-3.26V7438.5a3.279 3.279 0 0 1 3.261-3.263h34.083a3.279 3.279 0 0 1 3.264 3.263 1 1 0 0 0 1 1 1 1 0 0 0 1-1 5.284 5.284 0 0 0-5.261-5.257h-34.088a5.283 5.283 0 0 0-5.259 5.26v51.133a5.285 5.285 0 0 0 5.261 5.257h25.564a1 1 0 1 0 0-2z" class="cls-1"/>
        </g>
        <rect id="사각형_91" width="4" height="4" class="cls-1" rx="2" transform="translate(336 7489)"/>
    </g>
</svg>
