<?xml version="1.0" encoding="utf-8"?>
<!-- Generator: Adobe Illustrator 25.2.1, SVG Export Plug-In . SVG Version: 6.00 Build 0)  -->
<svg version="1.1" id="레이어_1" xmlns="http://www.w3.org/2000/svg" xmlns:xlink="http://www.w3.org/1999/xlink" x="0px"
	 y="0px" viewBox="0 0 67.3 49.7" style="enable-background:new 0 0 67.3 49.7;" xml:space="preserve">
<style type="text/css">
	.st0{fill:#FFFFFF;}
</style>
<path class="st0" d="M65.1,8.7c-0.7-3.4-3.4-6-6.9-6.5c-5.6-0.8-14.4-1.8-24.5-1.8s-19.1,1-24.5,1.8C5.8,2.6,3,5.2,2.3,8.7
	C1.7,12.4,1,18,1,24.8S1.7,37.3,2.3,41c0.7,3.4,3.4,6,6.9,6.5c5.6,0.8,14.5,1.8,24.5,1.8c10.1,0,19.1-1,24.5-1.8
	c3.4-0.5,6.2-3.1,6.9-6.5c0.7-3.8,1.3-9.3,1.5-16.2C66.6,18,65.7,12.4,65.1,8.7z M27.2,36.3V13.4l19.6,11.4L27.2,36.3z"/>
</svg>
