<svg xmlns="http://www.w3.org/2000/svg" width="188.147" height="30.517" viewBox="0 0 188.147 30.517">
    <defs>
        <style>
            .cls-1{fill:#fff}.cls-2{fill:#002891}.cls-3{fill:#00b6d7}
        </style>
    </defs>
    <g id="그룹_2783" transform="translate(-190.395 -188.272)">
        <path id="사각형_30" d="M0 0H86.679V30.281H0z" class="cls-1" transform="translate(190.395 188.272)"/>
        <g id="그룹_2779">
            <path id="패스_527" d="M190.4 188.272v30.279h37.352l21.3-30.279zm9.7 14.72a3.376 3.376 0 0 1-1.768.42h-1.5l-1.152 3.564h-1.65l3.257-9.789h3.765a1.265 1.265 0 0 1 .9.554 2.074 2.074 0 0 1 .255 1.824 5.206 5.206 0 0 1-2.111 3.427m3.819 4.288c-3.253-.233-2.122-4.365-1.291-6.237.711-1.6 2.539-4.387 5.24-4.157s2.072 3.57 1.662 4.828c-.555 1.7-2.355 5.8-5.611 5.566m7.98 0c-3.257-.233-2.125-4.365-1.294-6.237.71-1.6 2.538-4.387 5.24-4.157s2.075 3.57 1.665 4.828c-.555 1.7-2.355 5.8-5.611 5.566m9.408-.37l-.739-6.743-2.241 6.743h-1.478l3.281-9.7h1.616l.668 6.65s2.309-6.7 2.309-6.65 1.432 0 1.432 0l-3.211 9.7zm5.516.253c-1.336-.03-1.9-1.517-1.778-3.188a11.539 11.539 0 0 1 .6-2.217c.763-2.727 3.348-4.872 5.381-4.887a1.958 1.958 0 0 1 2.079 1.909v1.454h-1.6s.276-1.5-.738-1.61c-2.14-.232-3.165 2.558-3.165 2.558-1.939 4.132.279 4.26.279 4.26a2.987 2.987 0 0 0 2.656-2.03h-1.57l.484-1.7 3.115-.023s-.23.739-.484 1.477a8.175 8.175 0 0 0-.3.995l6.534-9.1h1.019l-10.183 14.387h-1.2l1.871-2.538.117-1.131a3.18 3.18 0 0 1-3.119 1.384m1.446 6.959l16.031-23.185h1.086l-15.971 23.185z" class="cls-2"/>
            <path id="패스_528" d="M199.988 198.964h-1.662l-.9 2.749s.739-.023 1.2 0a1.516 1.516 0 0 0 1.06-.3 3.216 3.216 0 0 0 .881-1.709c.136-.668-.58-.739-.58-.739" class="cls-2"/>
            <path id="패스_529" d="M207.24 198.664c-1.248-.3-2.38 1.109-3.211 2.8s-.668 3.739.209 3.924 1.846.045 3.231-2.493.584-4.031-.229-4.228" class="cls-2"/>
            <path id="패스_530" d="M215.216 198.664c-1.248-.3-2.379 1.109-3.21 2.8s-.668 3.739.208 3.924 1.846.045 3.232-2.493.584-4.031-.23-4.228" class="cls-2"/>
            <path id="패스_531" d="M250.362 188.272l-21.01 30.281h47.722v-30.281zm-16.625 25.849l16.222-23.183h1.141l-16.028 23.183zm18.226-7.212l1.489-7.326-3.72 7.326h-1.488l.8-7.946-7.324 10.484-1.312-.087 10.356-14.3h.972l-1.428 2.125.8.025-1.085 6.668 3.2-6.668h1.725l-1.147 6.608 3.378-6.633 1.606.025-5.325 9.765zm7.5.2c-3.256-.233-2.125-4.366-1.291-6.236.711-1.6 2.539-4.384 5.24-4.154s2.072 3.571 1.662 4.826c-.555 1.7-2.355 5.794-5.611 5.564m11.109-.2h-1.637l-.739-6.743-2.241 6.743h-1.475l3.277-9.7h1.62l.668 6.649s2.309-6.7 2.309-6.649 1.432 0 1.432 0z" class="cls-3"/>
            <path id="패스_532" d="M262.793 198.5c-1.248-.3-2.379 1.109-3.21 2.8s-.669 3.74.208 3.925 1.846.049 3.232-2.5.583-4.028-.23-4.225" class="cls-3"/>
        </g>
        <g id="그룹_2780">
            <path id="패스_533" d="M280.909 198.254h17.884v2.128h-7.2v1.376a6.308 6.308 0 0 1 1.556.624 5.016 5.016 0 0 1 1.236.967 4.294 4.294 0 0 1 .806 1.237 3.453 3.453 0 0 1-.14 3.062 4.451 4.451 0 0 1-1.159 1.377 5.555 5.555 0 0 1-1.73.946 6.631 6.631 0 0 1-2.16.343 6.879 6.879 0 0 1-2.216-.343 5.525 5.525 0 0 1-1.741-.946 4.2 4.2 0 0 1-1.138-1.377 3.631 3.631 0 0 1-.119-3.1 4.362 4.362 0 0 1 .827-1.268 5.5 5.5 0 0 1 1.291-.978 5.884 5.884 0 0 1 1.676-.612v-1.312h-7.674zm4.32-6.17h-1.849V190h13.113v2.085h-1.826l-.173 2.774h2.666v2.106h-14.446v-2.106h2.686zm3.022 15.479a2.561 2.561 0 0 0 3.493 0 2.232 2.232 0 0 0 0-3.3 2.529 2.529 0 0 0-3.493 0 2.246 2.246 0 0 0 0 3.3zm.01-12.705h3.375l.172-2.774h-3.718z" class="cls-1"/>
            <path id="패스_534" d="M303.975 203.779v-3.032h-4.215v-2.063h4.408q1.527 0 3.633-.162a31.118 31.118 0 0 0 4.127-.591v2.107q-1.2.237-2.494.376t-2.622.205v3.16zm-.269-6.117a5 5 0 0 1-1.559-.913 4.105 4.105 0 0 1-1.01-1.3 3.457 3.457 0 0 1 0-3.1 4.344 4.344 0 0 1 1.01-1.321 5.607 5.607 0 0 1 5.429-.914 5.006 5.006 0 0 1 1.557.914 4.26 4.26 0 0 1 1.054 1.3 3.332 3.332 0 0 1 0 3.117 4.264 4.264 0 0 1-1.054 1.3 5 5 0 0 1-1.557.913 5.385 5.385 0 0 1-1.9.333 5.557 5.557 0 0 1-1.97-.329zm-.463 6.632h2.882v2.711h9.737v2.149h-12.619zm.99-8.986a1.974 1.974 0 0 0 2.88 0 2.008 2.008 0 0 0 0-2.869 1.95 1.95 0 0 0-2.88 0 2.008 2.008 0 0 0 0 2.869zm4.17 7.847v-2.042h4.279v-11.329h2.837v14.639h-2.837v-1.268z" class="cls-1"/>
            <path id="패스_535" d="M325.172 192.643v1.011a4.171 4.171 0 0 0 .4 1.837 5.419 5.419 0 0 0 1.064 1.494 9.1 9.1 0 0 0 1.527 1.258 18.389 18.389 0 0 0 1.784 1.043l-2.063 1.677a14.562 14.562 0 0 1-2.505-1.7 7.9 7.9 0 0 1-1.6-1.827 7.059 7.059 0 0 1-1.86 2.139 24.351 24.351 0 0 1-2.74 1.838l-2.02-1.634a16.568 16.568 0 0 0 1.923-1.085 9.057 9.057 0 0 0 1.644-1.366 6.165 6.165 0 0 0 1.162-1.655 4.549 4.549 0 0 0 .429-1.978v-1.053h-3.747v-2.149h10.19v2.149zm.751 17.317a5.478 5.478 0 0 1-1.676-.956 4.38 4.38 0 0 1-1.108-1.409 3.8 3.8 0 0 1 0-3.385 4.531 4.531 0 0 1 1.108-1.441 5.552 5.552 0 0 1 1.676-1 5.76 5.76 0 0 1 2.107-.377 5.649 5.649 0 0 1 3.72 1.377 4.857 4.857 0 0 1 1.128 1.441 3.627 3.627 0 0 1 0 3.385A4.692 4.692 0 0 1 331.75 209a5.538 5.538 0 0 1-1.667.956 5.878 5.878 0 0 1-2.053.354 6.086 6.086 0 0 1-2.107-.35zm.408-2.354a2.325 2.325 0 0 0 3.343 0 2.364 2.364 0 0 0 .7-1.721 2.413 2.413 0 0 0-.7-1.72 2.279 2.279 0 0 0-3.343 0 2.431 2.431 0 0 0-.687 1.72 2.382 2.382 0 0 0 .687 1.721zm1.054-11.373V194.1h3.569v-4.32h2.838v11.91h-2.838v-5.461z" class="cls-1"/>
            <path id="패스_536" d="M346.176 198.749h-9.137v-8.471h9.137zm-6.407 5.224h9.437v-1.248h-9.48v-2.042h12.361v5.268h-9.438v1.333h9.781v2.042h-12.661zm.171-7.31h3.441v-4.235h-3.441zm9.31 3.267v-10.146h2.837v10.146z" class="cls-1"/>
        </g>
        <g id="그룹_2781">
            <path id="패스_537" d="M287.766 215.036a1.268 1.268 0 0 1-.375.46 1.536 1.536 0 0 1-.548.254 2.778 2.778 0 0 1-.664.078h-.686v1.95h-.861v-4.867h1.416a3.491 3.491 0 0 1 .7.069 1.651 1.651 0 0 1 .59.239 1.2 1.2 0 0 1 .414.436 1.384 1.384 0 0 1 .154.684 1.554 1.554 0 0 1-.14.697zm-.838-1.01a.655.655 0 0 0-.2-.228.815.815 0 0 0-.285-.13 1.431 1.431 0 0 0-.329-.039h-.62v1.488h.633a1.52 1.52 0 0 0 .323-.033.753.753 0 0 0 .283-.117.624.624 0 0 0 .2-.228.786.786 0 0 0 .074-.359.724.724 0 0 0-.079-.354z" class="cls-1"/>
            <path id="패스_538" d="M292.34 216.337a2.409 2.409 0 0 1-.426.8 2.061 2.061 0 0 1-.7.532 2.229 2.229 0 0 1-.946.191 2.286 2.286 0 0 1-.963-.189 1.939 1.939 0 0 1-.7-.529 2.279 2.279 0 0 1-.421-.8 3.5 3.5 0 0 1-.139-1.013 3.333 3.333 0 0 1 .143-.993 2.249 2.249 0 0 1 .424-.794 1.961 1.961 0 0 1 .695-.529 2.294 2.294 0 0 1 .956-.189 2.234 2.234 0 0 1 .943.193 2.023 2.023 0 0 1 .7.525 2.334 2.334 0 0 1 .433.795 3.237 3.237 0 0 1 .145.992 3.306 3.306 0 0 1-.144 1.008zm-.831-1.644a2.025 2.025 0 0 0-.235-.575 1.364 1.364 0 0 0-.412-.413 1.059 1.059 0 0 0-.593-.161 1.079 1.079 0 0 0-.6.161 1.358 1.358 0 0 0-.41.413 1.909 1.909 0 0 0-.231.575 2.675 2.675 0 0 0-.076.638 3.116 3.116 0 0 0 .069.656 1.825 1.825 0 0 0 .224.578 1.233 1.233 0 0 0 .408.417 1.141 1.141 0 0 0 .617.158 1.128 1.128 0 0 0 .61-.158 1.231 1.231 0 0 0 .407-.417 1.931 1.931 0 0 0 .23-.578 2.989 2.989 0 0 0 .071-.656 2.73 2.73 0 0 0-.079-.638z" class="cls-1"/>
            <path id="패스_539" d="M297.094 216.337a2.373 2.373 0 0 1-.426.8 2.048 2.048 0 0 1-.7.532 2.232 2.232 0 0 1-.946.191 2.28 2.28 0 0 1-.963-.189 1.93 1.93 0 0 1-.7-.529 2.262 2.262 0 0 1-.421-.8 3.47 3.47 0 0 1-.14-1.013 3.3 3.3 0 0 1 .144-.993 2.25 2.25 0 0 1 .424-.794 1.953 1.953 0 0 1 .7-.529 2.294 2.294 0 0 1 .956-.189 2.226 2.226 0 0 1 .942.193 2.014 2.014 0 0 1 .7.525 2.3 2.3 0 0 1 .433.795 3.207 3.207 0 0 1 .147.992 3.275 3.275 0 0 1-.15 1.008zm-.831-1.644a2 2 0 0 0-.235-.575 1.342 1.342 0 0 0-.412-.413 1.053 1.053 0 0 0-.592-.161 1.077 1.077 0 0 0-.6.161 1.358 1.358 0 0 0-.41.413 1.937 1.937 0 0 0-.232.575 2.727 2.727 0 0 0-.076.638 3.116 3.116 0 0 0 .069.656 1.8 1.8 0 0 0 .225.578 1.224 1.224 0 0 0 .408.417 1.141 1.141 0 0 0 .617.158 1.128 1.128 0 0 0 .61-.158 1.249 1.249 0 0 0 .407-.417 1.9 1.9 0 0 0 .229-.578 2.989 2.989 0 0 0 .071-.656 2.678 2.678 0 0 0-.079-.638z" class="cls-1"/>
            <path id="패스_540" d="M300.42 217.778l-1.788-3.752h-.012v3.752h-.829v-4.867h1.084l1.78 3.751h.014v-3.751h.827v4.867z" class="cls-1"/>
            <path id="패스_541" d="M305.287 217.8a3.953 3.953 0 0 1-.764.071 2.929 2.929 0 0 1-1.011-.166 2.23 2.23 0 0 1-.783-.479 2.183 2.183 0 0 1-.506-.784 2.924 2.924 0 0 1-.179-1.057 3.045 3.045 0 0 1 .174-1.066 2.142 2.142 0 0 1 1.278-1.312 2.81 2.81 0 0 1 1.034-.18 4.125 4.125 0 0 1 .727.058c.212.041.415.089.611.145l-.06.784a2.162 2.162 0 0 0-.573-.2 3.148 3.148 0 0 0-.62-.065 1.669 1.669 0 0 0-.707.143 1.567 1.567 0 0 0-.852.953 2.128 2.128 0 0 0-.112.7 2.2 2.2 0 0 0 .112.706 1.762 1.762 0 0 0 .312.574 1.529 1.529 0 0 0 .5.391 1.489 1.489 0 0 0 .659.143 2.951 2.951 0 0 0 .359-.019 2.216 2.216 0 0 0 .267-.052v-1.35h-.978v-.706h1.807v2.6c-.22.061-.451.118-.695.168z" class="cls-1"/>
            <path id="패스_542" d="M311.1 217.778h-1.122l-.784-3.987h-.012l-.829 3.987h-1.083l-1.076-4.867h.914l.744 3.974h.012l.744-3.974h1.181l.764 3.974h.012l.757-3.974h.849z" class="cls-1"/>
            <path id="패스_543" d="M316.537 216.337a2.373 2.373 0 0 1-.426.8 2.047 2.047 0 0 1-.7.532 2.232 2.232 0 0 1-.946.191 2.28 2.28 0 0 1-.963-.189 1.93 1.93 0 0 1-.7-.529 2.262 2.262 0 0 1-.421-.8 3.47 3.47 0 0 1-.14-1.013 3.3 3.3 0 0 1 .144-.993 2.249 2.249 0 0 1 .424-.794 1.952 1.952 0 0 1 .695-.529 2.294 2.294 0 0 1 .956-.189 2.226 2.226 0 0 1 .942.193 2.014 2.014 0 0 1 .7.525 2.3 2.3 0 0 1 .433.795 3.207 3.207 0 0 1 .147.992 3.275 3.275 0 0 1-.145 1.008zm-.831-1.644a2 2 0 0 0-.235-.575 1.342 1.342 0 0 0-.412-.413 1.053 1.053 0 0 0-.592-.161 1.077 1.077 0 0 0-.6.161 1.358 1.358 0 0 0-.41.413 1.937 1.937 0 0 0-.232.575 2.727 2.727 0 0 0-.076.638 3.114 3.114 0 0 0 .069.656 1.8 1.8 0 0 0 .225.578 1.224 1.224 0 0 0 .408.417 1.141 1.141 0 0 0 .617.158 1.128 1.128 0 0 0 .61-.158 1.249 1.249 0 0 0 .407-.417 1.9 1.9 0 0 0 .229-.578 2.991 2.991 0 0 0 .071-.656 2.678 2.678 0 0 0-.079-.638z" class="cls-1"/>
            <path id="패스_544" d="M319.863 217.778l-1.788-3.752h-.012v3.752h-.829v-4.867h1.084l1.78 3.751h.014v-3.751h.827v4.867z" class="cls-1"/>
            <path id="패스_545" d="M326.487 215.036a1.278 1.278 0 0 1-.375.46 1.544 1.544 0 0 1-.548.254 2.793 2.793 0 0 1-.665.078h-.686v1.95h-.861v-4.867h1.416a3.483 3.483 0 0 1 .7.069 1.649 1.649 0 0 1 .591.239 1.185 1.185 0 0 1 .413.436 1.374 1.374 0 0 1 .154.684 1.554 1.554 0 0 1-.139.697zm-.838-1.01a.648.648 0 0 0-.2-.228.81.81 0 0 0-.284-.13 1.431 1.431 0 0 0-.329-.039h-.621v1.488h.633a1.523 1.523 0 0 0 .324-.033.76.76 0 0 0 .283-.117.613.613 0 0 0 .2-.228.773.773 0 0 0 .075-.359.724.724 0 0 0-.081-.354z" class="cls-1"/>
            <path id="패스_546" d="M329.414 217.778l-.569-1.565a.783.783 0 0 0-.237-.382.446.446 0 0 0-.251-.1h-.5v2.042H327v-4.867h1.219a4.7 4.7 0 0 1 .764.057 1.725 1.725 0 0 1 .594.2 1.023 1.023 0 0 1 .378.394 1.329 1.329 0 0 1 .137.643 1.224 1.224 0 0 1-.248.76 1.074 1.074 0 0 1-.619.421v.02a.489.489 0 0 1 .257.231 2.363 2.363 0 0 1 .166.31l.732 1.833zm-.3-3.81a.639.639 0 0 0-.212-.208.932.932 0 0 0-.293-.1 1.818 1.818 0 0 0-.327-.03h-.418v1.4h.3a2.515 2.515 0 0 0 .4-.03 1.018 1.018 0 0 0 .329-.106.583.583 0 0 0 .219-.219.708.708 0 0 0 .082-.362.627.627 0 0 0-.084-.345z" class="cls-1"/>
            <path id="패스_547" d="M330.666 217.778v-4.867h2.655v.718h-1.794v1.271h1.644v.724h-1.644v1.434h1.807v.718z" class="cls-1"/>
            <path id="패스_548" d="M336.739 217.82a3.247 3.247 0 0 1-.513.043 3.059 3.059 0 0 1-1.011-.159 2.108 2.108 0 0 1-.783-.474 2.131 2.131 0 0 1-.506-.769 2.915 2.915 0 0 1-.179-1.057 3.075 3.075 0 0 1 .174-1.07 2.23 2.23 0 0 1 .5-.81 2.189 2.189 0 0 1 .78-.514 2.754 2.754 0 0 1 1.027-.184 2.922 2.922 0 0 1 .506.05 2.483 2.483 0 0 1 .525.153l-.066.769a1.893 1.893 0 0 0-.491-.2 2.1 2.1 0 0 0-.479-.056 1.43 1.43 0 0 0-.656.147 1.537 1.537 0 0 0-.493.389 1.706 1.706 0 0 0-.317.576 2.248 2.248 0 0 0-.108.7 2.128 2.128 0 0 0 .112.7 1.742 1.742 0 0 0 .313.567 1.48 1.48 0 0 0 .5.379 1.513 1.513 0 0 0 .656.138 3.039 3.039 0 0 0 .548-.053 1.326 1.326 0 0 0 .451-.151l.039.771a4.443 4.443 0 0 1-.529.115z" class="cls-1"/>
            <path id="패스_549" d="M337.649 217.778v-4.867h.861v4.867z" class="cls-1"/>
            <path id="패스_550" d="M341.911 217.048a1.247 1.247 0 0 1-.374.463 1.55 1.55 0 0 1-.562.267 2.824 2.824 0 0 1-.7.085 2.72 2.72 0 0 1-.652-.071 3.557 3.557 0 0 1-.548-.177l.084-.815a1.766 1.766 0 0 0 .518.248 1.91 1.91 0 0 0 .571.092 1.163 1.163 0 0 0 .317-.046 1.077 1.077 0 0 0 .29-.131.812.812 0 0 0 .208-.221.538.538 0 0 0 .085-.3.484.484 0 0 0-.088-.3.923.923 0 0 0-.232-.219 2.063 2.063 0 0 0-.32-.17c-.12-.051-.242-.107-.364-.169a3.882 3.882 0 0 1-.369-.189 1.326 1.326 0 0 1-.317-.255 1.073 1.073 0 0 1-.228-.348 1.3 1.3 0 0 1-.085-.493 1.472 1.472 0 0 1 .135-.656 1.322 1.322 0 0 1 .355-.46 1.491 1.491 0 0 1 .5-.267 1.972 1.972 0 0 1 .594-.092 3.556 3.556 0 0 1 .557.046 3.291 3.291 0 0 1 .539.131l-.085.744a2.939 2.939 0 0 0-.463-.147 2.151 2.151 0 0 0-.483-.056.912.912 0 0 0-.254.039.764.764 0 0 0-.242.125.631.631 0 0 0-.182.221.7.7 0 0 0-.073.327.438.438 0 0 0 .085.271.765.765 0 0 0 .23.2 1.867 1.867 0 0 0 .316.17l.368.162c.122.062.244.129.366.2a1.517 1.517 0 0 1 .32.26 1.331 1.331 0 0 1 .231.366 1.254 1.254 0 0 1 .087.49 1.552 1.552 0 0 1-.135.675z" class="cls-1"/>
            <path id="패스_551" d="M342.606 217.778v-4.867h.861v4.867z" class="cls-1"/>
            <path id="패스_552" d="M348.311 216.337a2.374 2.374 0 0 1-.426.8 2.058 2.058 0 0 1-.7.532 2.232 2.232 0 0 1-.946.191 2.28 2.28 0 0 1-.963-.189 1.93 1.93 0 0 1-.7-.529 2.262 2.262 0 0 1-.421-.8 3.47 3.47 0 0 1-.14-1.013 3.3 3.3 0 0 1 .144-.993 2.234 2.234 0 0 1 .424-.794 1.953 1.953 0 0 1 .7-.529 2.29 2.29 0 0 1 .956-.189 2.23 2.23 0 0 1 .942.193 2.013 2.013 0 0 1 .695.525 2.3 2.3 0 0 1 .433.795 3.207 3.207 0 0 1 .147.992 3.275 3.275 0 0 1-.145 1.008zm-.831-1.644a2.025 2.025 0 0 0-.235-.575 1.353 1.353 0 0 0-.412-.413 1.053 1.053 0 0 0-.592-.161 1.077 1.077 0 0 0-.6.161 1.358 1.358 0 0 0-.41.413 1.911 1.911 0 0 0-.232.575 2.727 2.727 0 0 0-.076.638 3.116 3.116 0 0 0 .069.656 1.8 1.8 0 0 0 .225.578 1.224 1.224 0 0 0 .408.417 1.141 1.141 0 0 0 .617.158 1.128 1.128 0 0 0 .61-.158 1.249 1.249 0 0 0 .407-.417 1.9 1.9 0 0 0 .229-.578 2.989 2.989 0 0 0 .071-.656 2.678 2.678 0 0 0-.079-.638z" class="cls-1"/>
            <path id="패스_553" d="M351.637 217.778l-1.788-3.752h-.012v3.752h-.829v-4.867h1.083l1.781 3.751h.014v-3.751h.827v4.867z" class="cls-1"/>
            <path id="패스_554" d="M357.889 217.82a3.225 3.225 0 0 1-.512.043 3.055 3.055 0 0 1-1.011-.159 2.112 2.112 0 0 1-.784-.474 2.141 2.141 0 0 1-.505-.769 2.894 2.894 0 0 1-.179-1.057 3.1 3.1 0 0 1 .173-1.07 2.232 2.232 0 0 1 .5-.81 2.189 2.189 0 0 1 .78-.514 2.751 2.751 0 0 1 1.027-.184 2.9 2.9 0 0 1 .5.05 2.45 2.45 0 0 1 .525.153l-.065.769a1.893 1.893 0 0 0-.491-.2 2.118 2.118 0 0 0-.48-.056 1.425 1.425 0 0 0-.655.147 1.552 1.552 0 0 0-.494.389 1.7 1.7 0 0 0-.316.576 2.219 2.219 0 0 0-.108.7 2.154 2.154 0 0 0 .111.7 1.78 1.78 0 0 0 .313.567 1.494 1.494 0 0 0 .5.379 1.51 1.51 0 0 0 .656.138 3.039 3.039 0 0 0 .548-.053 1.326 1.326 0 0 0 .451-.151l.039.771a4.416 4.416 0 0 1-.523.115z" class="cls-1"/>
            <path id="패스_555" d="M361.862 216.7a1.9 1.9 0 0 1-.341.6 1.67 1.67 0 0 1-1.286.561 1.746 1.746 0 0 1-.737-.152 1.648 1.648 0 0 1-.548-.409 1.825 1.825 0 0 1-.339-.6 2.174 2.174 0 0 1-.119-.722 2.2 2.2 0 0 1 .131-.772 1.808 1.808 0 0 1 .366-.6 1.6 1.6 0 0 1 .548-.387 1.734 1.734 0 0 1 1.945.387 1.861 1.861 0 0 1 .367.6 2.237 2.237 0 0 1 .013 1.494zm-.8-1.2a1.277 1.277 0 0 0-.166-.4.84.84 0 0 0-.277-.267.758.758 0 0 0-.388-.1.7.7 0 0 0-.378.1.936.936 0 0 0-.281.27 1.265 1.265 0 0 0-.166.394 1.978 1.978 0 0 0-.057.474 1.946 1.946 0 0 0 .057.476 1.184 1.184 0 0 0 .166.385.793.793 0 0 0 .274.264.753.753 0 0 0 .385.1.734.734 0 0 0 .669-.355 1.627 1.627 0 0 0 .219-.865 1.984 1.984 0 0 0-.053-.476z" class="cls-1"/>
            <path id="패스_556" d="M362.382 218.032v-.977h.873v.977z" class="cls-1"/>
            <path id="패스_557" d="M364.307 218.789h-.737l.417-1.688h.907z" class="cls-1"/>
            <path id="패스_558" d="M367.086 217.778v-4.867h.861v4.149h1.794v.718z" class="cls-1"/>
            <path id="패스_559" d="M371.6 217.843a3.149 3.149 0 0 1-.364.02 1.014 1.014 0 0 1-.783-.294 1.146 1.146 0 0 1-.274-.815V214.8h-.555v-.633h.555v-.71l.822-.274v.984h.849v.633H371v1.8a.876.876 0 0 0 .094.417.346.346 0 0 0 .336.177 1.27 1.27 0 0 0 .242-.023.689.689 0 0 0 .223-.081l.019.684a1.3 1.3 0 0 1-.314.069z" class="cls-1"/>
            <path id="패스_560" d="M374.426 217.778v-.41h-.014a1.16 1.16 0 0 1-.449.371 1.407 1.407 0 0 1-.6.124 1.236 1.236 0 0 1-.66-.163 1.343 1.343 0 0 1-.436-.429 1.953 1.953 0 0 1-.244-.617 3.25 3.25 0 0 1-.076-.709 3.149 3.149 0 0 1 .076-.692 1.668 1.668 0 0 1 .251-.6 1.309 1.309 0 0 1 .436-.421 1.242 1.242 0 0 1 .653-.161 1.26 1.26 0 0 1 .59.128 1.322 1.322 0 0 1 .435.375h.013v-1.8h.822v5zm-.081-2.224a1.62 1.62 0 0 0-.149-.4.851.851 0 0 0-.253-.3.605.605 0 0 0-.373-.117.547.547 0 0 0-.367.124.947.947 0 0 0-.239.3 1.471 1.471 0 0 0-.12.394 2.279 2.279 0 0 0-.037.395 2.442 2.442 0 0 0 .037.408 1.344 1.344 0 0 0 .127.4.936.936 0 0 0 .237.313.563.563 0 0 0 .377.124.6.6 0 0 0 .374-.12.945.945 0 0 0 .251-.3 1.394 1.394 0 0 0 .14-.4 2.155 2.155 0 0 0 .043-.412 1.887 1.887 0 0 0-.048-.409z" class="cls-1"/>
            <path id="패스_561" d="M375.835 218.032v-.977h.873v.977z" class="cls-1"/>
        </g>
        <g id="그룹_2782">
            <path id="패스_562" d="M358.554 209.282a17.055 17.055 0 0 1-1.93-3.515 10.645 10.645 0 0 1-.715-3.976 11.894 11.894 0 0 1 .181-2.135 10.661 10.661 0 0 1 .525-1.889 12.251 12.251 0 0 1 .838-1.732q.494-.846 1.1-1.733h1.97q-.525.887-.969 1.733a14 14 0 0 0-.771 1.749 12.8 12.8 0 0 0-.493 1.88 11.763 11.763 0 0 0-.181 2.127 11.116 11.116 0 0 0 .681 3.967 21.253 21.253 0 0 0 1.733 3.524z" class="cls-1"/>
            <path id="패스_563" d="M368.474 204.42v4.88h-2.235v-4.88h-5.9v-1.627h13.666v1.627zm-6.274-9.478h10.083v1.643h-3.908v.542a1.573 1.573 0 0 0 .428 1 5.065 5.065 0 0 0 1.133.969 9.926 9.926 0 0 0 1.617.838 11.132 11.132 0 0 0 1.881.591l-1.281 1.379a7.384 7.384 0 0 1-1.553-.394 9.677 9.677 0 0 1-2.521-1.4 6.15 6.15 0 0 1-.822-.764 6.021 6.021 0 0 1-.9.789 9.7 9.7 0 0 1-1.2.739 13.776 13.776 0 0 1-1.387.632 8.965 8.965 0 0 1-1.438.436l-1.28-1.413a9.912 9.912 0 0 0 1.848-.551 10.085 10.085 0 0 0 1.633-.829 5.69 5.69 0 0 0 1.158-1 1.592 1.592 0 0 0 .453-1.018v-.542H362.2z" class="cls-1"/>
            <path id="패스_564" d="M377.8 205.767a19.936 19.936 0 0 1-1.922 3.515h-1.955a22.359 22.359 0 0 0 1.725-3.524 10.986 10.986 0 0 0 .69-3.967 11.3 11.3 0 0 0-.189-2.127 13.9 13.9 0 0 0-.5-1.88 14.3 14.3 0 0 0-.772-1.749q-.444-.846-.953-1.733h1.955q.591.887 1.084 1.733a12.251 12.251 0 0 1 .838 1.732 11.821 11.821 0 0 1 .542 1.889 10.922 10.922 0 0 1 .2 2.135 10.245 10.245 0 0 1-.743 3.976z" class="cls-1"/>
        </g>
    </g>
</svg>
